<svg id="icon" xmlns="http://www.w3.org/2000/svg" viewBox="0 0 797.36 156.14"><defs><style>.cls-1{fill:#4f73f2;}.cls-2{fill:#fb686f;}.cls-3,.cls-5{font-size:160px;font-family:Nitti Grotesk;}.cls-4{letter-spacing:-1px;}.cls-5{fill:#dee2e6;}</style></defs><title>32bytes_dark</title><path d="M145.14,56.64c1.2,4.94-2.21,8-4.18,11.52-4.33,7.68-9,15.18-13.5,22.76a6.83,6.83,0,0,0-.52.85c-2.74,6.69-7.55,12.19-10.8,18.6s-7.07,12.82-10.56,19.26-6.9,12.92-10.31,19.4c-2,3.87-3.45,4.17-7.28,2-16.76-9.56-33.61-19-50.32-28.61-5.22-3-10-6.84-15.16-9.89-6.23-3.67-12.72-6.91-19.09-10.34C2.68,101.78,2,101.35,1.23,101-0.16,100.2-.3,99.22.45,97.86c5.34-9.68,10.59-19.41,16-29.08,4.07-7.34,8.38-14.56,12.36-21.95,1.45-2.69,1.91-5.92,3.4-8.58,3.86-6.89,8.06-13.6,12.11-20.38,2.5-4.19,5.08-8.35,7.42-12.63,1-1.84,1.89-1.54,3.32-.65Q75.51,17.27,96,29.87c2.76,1.7,5.51,3.44,8.36,5a16.38,16.38,0,0,0,3.55.91,2.26,2.26,0,0,1,1,.54c5.19,5.61,12.3,8.14,18.78,11.66C133.49,51.05,139.39,53.78,145.14,56.64ZM52.73,9.14L34.43,42.89,84.19,72.38,104.34,38ZM79,93a11.81,11.81,0,0,0,1,.7q14.47,8.12,29,16.21c1.66,0.92,3,.68,4.09-1.18,6-10.19,12.06-20.32,18.07-30.49,3.16-5.36,6.24-10.78,9.35-16.17l-34-21.19ZM59.81,85.46L38.87,119.56c16.78,9.23,33.36,18.71,50.61,27.46l18.41-32.33Zm-25.1-37L5.46,98.33,35.36,117a7.31,7.31,0,0,1,.83-1.94c7.65-9.67,13.12-20.64,18.86-31.45,1.05-2,.7-5.45,4.54-5a0.74,0.74,0,0,0,.31-0.37l6.67-11.36ZM69.56,67.62L61.38,81.83l12.9,9,9-16Z"/><path class="cls-1" d="M52.73,9.14L104.34,38,84.19,72.38,34.43,42.89Z"/><path class="cls-2" d="M79,93L106.5,40.86l34,21.19c-3.11,5.39-6.19,10.81-9.35,16.17-6,10.18-12.09,20.3-18.07,30.49-1.09,1.86-2.43,2.1-4.09,1.18q-14.5-8.06-29-16.21A11.81,11.81,0,0,1,79,93Z"/><path class="cls-1" d="M59.81,85.46l48.08,29.23L89.48,147c-17.25-8.75-33.83-18.23-50.61-27.46Z"/><path class="cls-2" d="M34.71,48.48L66.58,66.89,59.91,78.25a0.74,0.74,0,0,1-.31.37c-3.84-.47-3.49,3-4.54,5C49.31,94.41,43.84,105.38,36.19,115a7.31,7.31,0,0,0-.83,1.94L5.46,98.33Z"/><text class="cls-3" transform="translate(171.6 123.59)">32 <tspan class="cls-4" x="182.34" y="0">B</tspan><tspan class="cls-4" x="270.78" y="0">Y</tspan><tspan x="350.23" y="0">T</tspan><tspan class="cls-4" x="424.14" y="0">E</tspan><tspan class="cls-4" x="504.77" y="0">S</tspan></text><text class="cls-5" transform="translate(171.77 123.64)">32 <tspan class="cls-4" x="182.34" y="0">B</tspan><tspan class="cls-4" x="270.78" y="0">Y</tspan><tspan x="350.23" y="0">T</tspan><tspan class="cls-4" x="424.14" y="0">E</tspan><tspan class="cls-4" x="504.77" y="0">S</tspan></text></svg>